<?xml version="1.0" encoding="UTF-8"?>
<svg width="24px" height="36px" viewBox="0 0 24 36" version="1.1" xmlns="http://www.w3.org/2000/svg" xmlns:xlink="http://www.w3.org/1999/xlink">
    <!-- Generator: Sketch 52.6 (67491) - http://www.bohemiancoding.com/sketch -->
    <title>Group</title>
    <desc>Created with Sketch.</desc>
    <g id="Symbols" stroke="none" stroke-width="1" fill="none" fill-rule="evenodd">
        <g id="tab/chats_active">
            <g id="Group">
                <path d="M3.8359375,28.5160156 C4.63516025,28.5160156 5.25533634,28.7265604 5.69648437,29.1476563 C6.13763241,29.5687521 6.38255184,30.0471327 6.43125,30.5828125 L5.59765625,30.5828125 C5.50312453,30.1760396 5.31478006,29.8537772 5.03261719,29.6160156 C4.75045432,29.378254 4.35442963,29.259375 3.84453125,29.259375 C3.22291356,29.259375 2.72090035,29.4777973 2.33847656,29.9146484 C1.95605278,30.3514996 1.76484375,31.0210892 1.76484375,31.9234375 C1.76484375,32.6625037 1.93743317,33.2619118 2.28261719,33.7216797 C2.62780121,34.1814476 3.14270491,34.4113281 3.82734375,34.4113281 C4.45755523,34.4113281 4.93736814,34.1692733 5.26679687,33.6851562 C5.44153733,33.4302071 5.57187457,33.0950542 5.6578125,32.6796875 L6.49140625,32.6796875 C6.41692671,33.3442742 6.17057501,33.90143 5.75234375,34.3511719 C5.25103916,34.8925808 4.57500425,35.1632812 3.72421875,35.1632812 C2.99088175,35.1632812 2.37500249,34.9412783 1.8765625,34.4972656 C1.22056964,33.9100231 0.892578125,33.0033915 0.892578125,31.7773438 C0.892578125,30.8463495 1.13892983,30.0829457 1.63164062,29.4871094 C2.16445579,28.8397103 2.89921407,28.5160156 3.8359375,28.5160156 Z M7.428125,28.6664063 L8.2015625,28.6664063 L8.2015625,31.0210937 C8.38489675,30.7890613 8.54960864,30.6257817 8.69570312,30.53125 C8.94492312,30.3679679 9.2557273,30.2863281 9.628125,30.2863281 C10.2955763,30.2863281 10.7481759,30.5197893 10.9859375,30.9867188 C11.1148444,31.2416679 11.1792969,31.5954404 11.1792969,32.0480469 L11.1792969,35 L10.384375,35 L10.384375,32.0996094 C10.384375,31.7615869 10.3414067,31.5138029 10.2554687,31.35625 C10.1151035,31.1041654 9.85156443,30.978125 9.46484375,30.978125 C9.14400881,30.978125 8.85325651,31.0884104 8.59257812,31.3089844 C8.33189974,31.5295584 8.2015625,31.9463511 8.2015625,32.559375 L8.2015625,35 L7.428125,35 L7.428125,28.6664063 Z M12.9152344,33.7753906 C12.9152344,33.9988292 12.9968742,34.1749994 13.1601562,34.3039062 C13.3234383,34.4328131 13.5167958,34.4972656 13.7402344,34.4972656 C14.0123712,34.4972656 14.2759102,34.4342454 14.5308594,34.3082031 C14.960549,34.0990875 15.1753906,33.7567732 15.1753906,33.28125 L15.1753906,32.6582031 C15.0808589,32.7183597 14.9591153,32.7684894 14.8101562,32.8085938 C14.6611972,32.8486981 14.5151049,32.8773437 14.371875,32.8945312 L13.9035156,32.9546875 C13.6227851,32.9919273 13.4122403,33.0506506 13.271875,33.1308594 C13.0341134,33.2654955 12.9152344,33.4803371 12.9152344,33.7753906 Z M14.7886719,32.2113281 C14.9662769,32.1884113 15.0851559,32.1139329 15.1453125,31.9878906 C15.1796877,31.9191403 15.196875,31.8203131 15.196875,31.6914062 C15.196875,31.4278633 15.1030608,31.2366542 14.9154297,31.1177734 C14.7277985,30.9988926 14.4592465,30.9394531 14.1097656,30.9394531 C13.7058574,30.9394531 13.4194019,31.0483062 13.2503906,31.2660156 C13.1558589,31.3863287 13.094271,31.5653634 13.065625,31.803125 L12.34375,31.803125 C12.358073,31.2359347 12.5421206,30.8413423 12.8958984,30.6193359 C13.2496762,30.3973296 13.6600237,30.2863281 14.1269531,30.2863281 C14.6683621,30.2863281 15.1080712,30.3894521 15.4460937,30.5957031 C15.7812517,30.8019542 15.9488281,31.1227843 15.9488281,31.5582031 L15.9488281,34.209375 C15.9488281,34.2895837 15.9652993,34.3540362 15.9982422,34.4027344 C16.0311851,34.4514325 16.1006505,34.4757812 16.2066406,34.4757812 C16.2410158,34.4757812 16.2796873,34.4736328 16.3226562,34.4693359 C16.3656252,34.465039 16.4114581,34.4585938 16.4601562,34.45 L16.4601562,35.0214844 C16.3398431,35.0558595 16.2481774,35.0773437 16.1851562,35.0859375 C16.1221351,35.0945313 16.0361985,35.0988281 15.9273437,35.0988281 C15.6609362,35.0988281 15.4675787,35.0042978 15.3472656,34.8152344 C15.2842445,34.7149735 15.2398439,34.573178 15.2140625,34.3898437 C15.0565096,34.5960948 14.8302098,34.7751294 14.5351562,34.9269531 C14.2401027,35.0787768 13.9149757,35.1546875 13.5597656,35.1546875 C13.1329406,35.1546875 12.784181,35.0250664 12.5134766,34.7658203 C12.2427721,34.5065742 12.1074219,34.1821634 12.1074219,33.7925781 C12.1074219,33.3657531 12.2406237,33.034897 12.5070312,32.8 C12.7734388,32.565103 13.1229145,32.420443 13.5554687,32.3660156 L14.7886719,32.2113281 Z M17.3710937,29.1132812 L18.153125,29.1132812 L18.153125,30.3980469 L18.8878906,30.3980469 L18.8878906,31.0296875 L18.153125,31.0296875 L18.153125,34.0332031 C18.153125,34.1936206 18.2075515,34.3010414 18.3164062,34.3554688 C18.3765628,34.3869793 18.4768222,34.4027344 18.6171875,34.4027344 C18.6544273,34.4027344 18.694531,34.4020182 18.7375,34.4005859 C18.780469,34.3991536 18.8305987,34.3955729 18.8878906,34.3898437 L18.8878906,35 C18.7990881,35.0257814 18.7067062,35.044401 18.6107422,35.0558594 C18.5147782,35.0673178 18.4109381,35.0730469 18.2992187,35.0730469 C17.9382794,35.0730469 17.69336,34.980665 17.5644531,34.7958984 C17.4355462,34.6111319 17.3710937,34.3712254 17.3710937,34.0761719 L17.3710937,31.0296875 L16.7480469,31.0296875 L16.7480469,30.3980469 L17.3710937,30.3980469 L17.3710937,29.1132812 Z M20.1210937,33.55625 C20.1440105,33.8140638 20.208463,34.0117181 20.3144531,34.1492188 C20.5092458,34.3984387 20.8472632,34.5230469 21.3285156,34.5230469 C21.6149754,34.5230469 21.8670562,34.4607428 22.0847656,34.3361328 C22.302475,34.2115228 22.4113281,34.0188815 22.4113281,33.7582031 C22.4113281,33.5605459 22.3239592,33.4101568 22.1492187,33.3070313 C22.0374994,33.2440101 21.8169287,33.170964 21.4875,33.0878906 L20.8730469,32.9332031 C20.480597,32.8358068 20.191277,32.7269537 20.0050781,32.6066406 C19.6727848,32.397525 19.5066406,32.108205 19.5066406,31.7386719 C19.5066406,31.303253 19.663475,30.9509128 19.9771484,30.6816406 C20.2908219,30.4123684 20.7126276,30.2777344 21.2425781,30.2777344 C21.9358108,30.2777344 22.4356756,30.4811178 22.7421875,30.8878906 C22.9341155,31.1457044 23.0272136,31.4235662 23.0214844,31.7214844 L22.2910156,31.7214844 C22.2766926,31.5467439 22.2151047,31.3877611 22.10625,31.2445313 C21.9286449,31.0411448 21.6207053,30.9394531 21.1824219,30.9394531 C20.8902329,30.9394531 20.6689461,30.9953119 20.5185547,31.1070312 C20.3681633,31.2187506 20.2929687,31.3662751 20.2929687,31.5496094 C20.2929687,31.7501312 20.3917959,31.9105463 20.5894531,32.0308594 C20.704037,32.1024743 20.8730458,32.1654945 21.0964844,32.2199219 L21.6078125,32.3445313 C22.1635444,32.4791673 22.5359366,32.6095046 22.725,32.7355469 C23.0257828,32.9332041 23.1761719,33.2440083 23.1761719,33.6679688 C23.1761719,34.0776062 23.0207698,34.4313787 22.7099609,34.7292969 C22.3991521,35.027215 21.9257844,35.1761719 21.2898437,35.1761719 C20.6052049,35.1761719 20.120379,35.0207698 19.8353516,34.7099609 C19.5503241,34.3991521 19.3977866,34.0145856 19.3777344,33.55625 L20.1210937,33.55625 Z" id="Chats" fill="#000000"></path>
                <g id="noun_chat_945230" transform="translate(1.000000, 0.000000)">
                    <path d="M17.43872,1.27372943 L3.04128,1.27372943 C2.56003716,1.27428021 2.09872045,1.46876906 1.75881445,1.81441061 C1.41890845,2.16005216 1.22825653,2.62853319 1.2288,3.11679307 L1.2288,11.2453894 C1.22771256,11.734009 1.41812422,12.2030241 1.75808915,12.5491153 C2.09805409,12.8952065 2.55968171,13.0899806 3.04128,13.0905309 L5.3248,13.0905309 L5.3248,16.5065361 L8.62208,13.4146774 L8.976384,13.0905309 L17.43872,13.0905309 C17.9203183,13.0899806 18.3819459,12.8952065 18.7219108,12.5491153 C19.0618758,12.2030241 19.2522874,11.734009 19.2512,11.2453894 L19.2512,3.11679307 C19.2517435,2.62853319 19.0610915,2.16005216 18.7211855,1.81441061 C18.3812795,1.46876906 17.9199628,1.27428021 17.43872,1.27372943 Z M6.086656,8.56494735 C5.60814799,8.56827788 5.17523291,8.27749832 4.99137233,7.82926934 C4.80751175,7.38104035 4.90926918,6.8644992 5.24882063,6.52241005 C5.58837208,6.1803209 6.0981925,6.08071347 6.53867634,6.27040128 C6.97916017,6.46008909 7.2627104,6.90134981 7.256064,7.38679957 C7.24934793,8.03786813 6.72839907,8.56271039 6.086656,8.56494735 Z M10.227712,8.56494735 C9.57790714,8.55920542 9.05550634,8.02050834 9.0604012,7.36122232 C9.06529607,6.7019363 9.59563625,6.17128489 10.2454526,6.17547544 C10.895269,6.17966599 11.4189178,6.71711438 11.415552,7.37641026 C11.4054959,8.03502679 10.8769403,8.56389264 10.227712,8.56494735 Z M14.393344,8.56494735 C13.7432546,8.5683726 13.2134094,8.03667125 13.2096483,7.37710501 C13.2058872,6.71753878 13.7296333,6.17965299 14.3797182,6.1754464 C15.0298031,6.17123981 15.5602688,6.70230397 15.5648,7.36186522 C15.567527,7.67926424 15.4454418,7.9846739 15.2255733,8.21047825 C15.0057048,8.43628259 14.7061915,8.56385344 14.393344,8.56494735 Z" id="Shape"></path>
                    <path d="M17.43872,0.0270122066 L3.04128,0.0270122066 C2.23397221,0.0270114637 1.45978936,0.352673578 0.889320837,0.93223966 C0.318852311,1.51180574 -0.00108728321,2.29771461 -9.19475237e-14,3.11679307 L-9.19475237e-14,11.2453894 C-0.00163164293,12.0648276 0.318067558,12.8512708 0.888595138,13.4312866 C1.45912272,14.0113025 2.23361675,14.3372498 3.04128,14.3372481 L4.096,14.3372481 L4.096,17.0384688 C4.096,17.8384456 4.390912,18.270641 4.839424,18.270641 C5.10976,18.270641 5.433344,18.1148013 5.783552,17.7864991 L9.457664,14.3372481 L17.444864,14.3372481 C18.2514621,14.3355965 19.0243772,14.0089198 19.593576,13.4290835 C20.1627748,12.8492471 20.4816311,12.0637486 20.48,11.2453894 L20.48,3.11679307 C20.4810873,2.29771461 20.1611477,1.51180574 19.5906792,0.93223966 C19.0202106,0.352673578 18.2460278,0.0270114637 17.43872,0.0270122066 Z M19.2512,11.2474672 C19.2517435,11.7357271 19.0610915,12.2042082 18.7211855,12.5498497 C18.3812795,12.8954912 17.9199628,13.0899801 17.43872,13.0905309 L8.976384,13.0905309 L8.624128,13.4229888 L5.3248,16.5065361 L5.3248,13.0905309 L3.04128,13.0905309 C2.55968171,13.0899806 2.09805409,12.8952065 1.75808915,12.5491153 C1.41812422,12.2030241 1.22771256,11.734009 1.2288,11.2453894 L1.2288,3.11679307 C1.22992864,2.10166696 2.04074281,1.27903025 3.04128,1.27788516 L17.43872,1.27788516 C18.4392572,1.27903025 19.2500714,2.10166696 19.2512,3.11679307 L19.2512,11.2453894 L19.2512,11.2474672 Z" id="Shape" fill="#000000" fill-rule="nonzero"></path>
                    <path d="M10.24,6.17540599 C9.58990298,6.1731208 9.06096321,6.70575494 9.05832973,7.36532963 C9.05569625,8.02490431 9.58036544,8.56186877 10.2304594,8.56492733 C10.8805533,8.56798589 11.4101083,8.03598136 11.413504,7.37641026 C11.4113137,6.71807728 10.8888282,6.18334769 10.24,6.17540599 Z" id="Path" fill="#000000"></path>
                    <path d="M6.096896,6.17540599 C5.62047882,6.16871668 5.18703443,6.45395793 4.99879775,6.89804293 C4.81056108,7.34212792 4.90462952,7.85753704 5.23711296,8.20379256 C5.5695964,8.55004808 6.0749695,8.65891048 6.51743711,8.47958713 C6.95990472,8.30026378 7.25226596,7.86809546 7.258112,7.3847217 C7.26303448,7.0678734 7.14325893,6.76210617 6.92530757,6.53512686 C6.7073562,6.30814754 6.40921279,6.17868483 6.096896,6.17540599 Z" id="Path" fill="#000000"></path>
                    <path d="M14.403584,6.17540599 C13.9251109,6.16866268 13.4901918,6.45634738 13.3032301,6.90325394 C13.1162683,7.3501605 13.2144443,7.86741466 13.5516171,8.21191714 C13.8887899,8.55641961 14.3979076,8.65966077 14.8396948,8.47311931 C15.2814821,8.28657784 15.5680827,7.84735039 15.5648,7.36186522 C15.5625952,6.71076485 15.0452957,6.18222 14.403584,6.17540599 Z" id="Path" fill="#000000"></path>
                </g>
            </g>
        </g>
    </g>
</svg>