<?xml version="1.0" encoding="UTF-8"?><svg width="30px" height="40px" viewBox="0 0 30 40" version="1.1" xmlns="http://www.w3.org/2000/svg" xmlns:xlink="http://www.w3.org/1999/xlink"><title>Group 2</title> <desc>Created with Sketch.</desc><g id="Symbols" stroke="none" stroke-width="1" fill="none" fill-rule="evenodd"><g id="tab/explore_active" transform="translate(1.000000, 0.000000)" fill="#000000"><g id="Group-2" transform="translate(-1.000000, 0.000000)"><g id="noun_Search_1826779" transform="translate(5.000000, 0.271795)"><g id="Group"><path d="M14.2888738,0.0696226167 C11.1404982,0.0649215849 8.27988965,1.88895827 6.9726282,4.73474899 C5.66536674,7.58053971 6.15272079,10.9228649 8.21907692,13.2830251 L5.96471795,15.5231043 C5.06525155,14.995708 3.92087444,15.1379247 3.17985231,15.8691915 L0.743163077,18.2902038 C0.156590413,18.86554 -0.0747982116,19.7090216 0.13681597,20.5005226 C0.348430151,21.2920237 0.970608445,21.9102136 1.76721595,22.1204713 C2.56382346,22.330729 3.41274687,22.1008236 3.99179487,21.518011 L6.42834051,19.0970843 C7.16432515,18.3608123 7.30745932,17.2237709 6.77666051,16.3300703 L9.03127795,14.0900197 C11.7272236,16.4104795 15.6399204,16.6877412 18.6400157,14.7709144 C21.6401109,12.8540877 23.0096782,9.20187135 22.0033769,5.80186065 C20.9970756,2.40184995 17.8557148,0.0676713483 14.2888738,0.0696226167 Z M5.61625436,18.2902038 L3.17970872,20.7111306 C2.72551927,21.1430947 2.00952483,21.1430947 1.55533538,20.7111306 C1.33985208,20.4971472 1.21878478,20.2068523 1.21878478,19.9041502 C1.21878478,19.6014482 1.33985208,19.3111532 1.55533538,19.0971699 L3.99179487,16.6761575 C4.28104283,16.3832618 4.70627166,16.2671853 5.10552762,16.3721372 C5.50478357,16.4770892 5.81660703,16.7869138 5.92223609,17.1836104 C6.02786515,17.580307 5.91103976,18.00281 5.61625436,18.2902038 Z M14.2888738,14.9072865 C10.4823574,14.9072865 7.39656615,11.841276 7.39656615,8.05916029 C7.39656615,4.27704461 10.4823574,1.21103406 14.2888738,1.21103406 C18.0953903,1.21103406 21.1811815,4.27704461 21.1811815,8.05916029 C21.1770032,11.839555 18.0936582,14.9031349 14.2888738,14.9072865 Z" id="Shape" fill-rule="nonzero"></path><path d="M14.9462564,3.55166654 C14.633424,3.51116542 14.3447749,3.72486207 14.294359,4.03428823 C14.2493662,4.34619846 14.4664174,4.63563197 14.7800944,4.68200684 C16.2816949,4.90514343 17.4599231,6.07753327 17.6823015,7.56983314 C17.7232543,7.85020574 17.9648037,8.05841872 18.2499405,8.05913176 C18.2777055,8.05889284 18.3054305,8.05698711 18.3329641,8.05342498 C18.6468649,8.00811937 18.8646436,7.71893266 18.8198195,7.40693333 C18.5223656,5.41532279 16.9502086,3.85059162 14.9462564,3.55166654 Z" id="Path"></path></g></g><path d="M0.833203125,31.6878906 L5.43515625,31.6878906 L5.43515625,32.4613281 L1.66679687,32.4613281 L1.66679687,34.3777344 L5.1515625,34.3777344 L5.1515625,35.1082031 L1.66679687,35.1082031 L1.66679687,37.2480469 L5.49960937,37.2480469 L5.49960937,38 L0.833203125,38 L0.833203125,31.6878906 Z M6.0796875,33.3980469 L7.08085937,33.3980469 L8.13789062,35.0179688 L9.2078125,33.3980469 L10.1488281,33.4195312 L8.59765625,35.6410156 L10.2175781,38 L9.22929687,38 L8.08632812,36.2726562 L6.97773437,38 L5.99804687,38 L7.61796875,35.6410156 L6.0796875,33.3980469 Z M12.8601562,37.4800781 C13.2210956,37.4800781 13.5211577,37.3289729 13.7603516,37.0267578 C13.9995455,36.7245428 14.1191406,36.2726593 14.1191406,35.6710937 C14.1191406,35.3044253 14.0661464,34.9893242 13.9601562,34.7257812 C13.7596344,34.2187475 13.3929714,33.9652344 12.8601562,33.9652344 C12.3244765,33.9652344 11.9578135,34.2330702 11.7601562,34.76875 C11.6541661,35.0552098 11.6011719,35.4190082 11.6011719,35.8601563 C11.6011719,36.2153664 11.6541661,36.5175769 11.7601562,36.7667969 C11.9606781,37.2423201 12.3273411,37.4800781 12.8601562,37.4800781 Z M10.8578125,33.4195312 L11.6097656,33.4195312 L11.6097656,34.0296875 C11.7644539,33.8205719 11.9334626,33.6587245 12.1167969,33.5441406 C12.3774753,33.3722648 12.6839826,33.2863281 13.0363281,33.2863281 C13.5576849,33.2863281 14.0002586,33.4861308 14.3640625,33.8857422 C14.7278664,34.2853536 14.9097656,34.8561161 14.9097656,35.5980469 C14.9097656,36.6006561 14.6476589,37.3167947 14.1234375,37.7464844 C13.7911442,38.0186212 13.4044293,38.1546875 12.9632812,38.1546875 C12.6166649,38.1546875 12.3259126,38.0787768 12.0910156,37.9269531 C11.9535149,37.8410152 11.8002613,37.6934906 11.63125,37.484375 L11.63125,39.8347656 L10.8578125,39.8347656 L10.8578125,33.4195312 Z M15.8335937,31.6878906 L16.6070312,31.6878906 L16.6070312,38 L15.8335937,38 L15.8335937,31.6878906 Z M19.5933594,37.5015625 C20.1061224,37.5015625 20.4577464,37.3074889 20.6482422,36.9193359 C20.8387379,36.531183 20.9339844,36.0993513 20.9339844,35.6238281 C20.9339844,35.1941385 20.8652351,34.8446628 20.7277344,34.5753906 C20.510025,34.1514302 20.1347683,33.9394531 19.6019531,33.9394531 C19.1292945,33.9394531 18.7855479,34.1199201 18.5707031,34.4808594 C18.3558583,34.8417987 18.2484375,35.277211 18.2484375,35.7871094 C18.2484375,36.2769556 18.3558583,36.6851546 18.5707031,37.0117188 C18.7855479,37.3382829 19.12643,37.5015625 19.5933594,37.5015625 Z M19.6234375,33.2648437 C20.2164092,33.2648437 20.7177063,33.462498 21.1273437,33.8578125 C21.5369812,34.253127 21.7417969,34.8346316 21.7417969,35.6023438 C21.7417969,36.3442745 21.5613299,36.9572892 21.2003906,37.4414062 C20.8394513,37.9255233 20.2794309,38.1675781 19.5203125,38.1675781 C18.8872364,38.1675781 18.3845071,37.9534527 18.0121094,37.5251953 C17.6397117,37.096938 17.4535156,36.5218786 17.4535156,35.8 C17.4535156,35.0265586 17.6497376,34.4106794 18.0421875,33.9523437 C18.4346374,33.4940081 18.9617154,33.2648437 19.6234375,33.2648437 Z M22.6828125,33.3980469 L23.4175781,33.3980469 L23.4175781,34.1929687 C23.4777347,34.0382805 23.6252592,33.849936 23.8601562,33.6279297 C24.0950533,33.4059234 24.3657537,33.2949219 24.6722656,33.2949219 C24.6865886,33.2949219 24.7109373,33.2963542 24.7453125,33.2992188 C24.7796877,33.3020833 24.838411,33.3078125 24.9214844,33.3164062 L24.9214844,34.1328125 C24.8756508,34.1242187 24.8333986,34.1184896 24.7947266,34.115625 C24.7560545,34.1127604 24.7138023,34.1113281 24.6679687,34.1113281 C24.2783835,34.1113281 23.9790375,34.2366524 23.7699219,34.4873047 C23.5608062,34.737957 23.45625,35.0265609 23.45625,35.353125 L23.45625,38 L22.6828125,38 L22.6828125,33.3980469 Z M27.5082031,33.2949219 C27.8347673,33.2949219 28.1513006,33.3715487 28.4578125,33.5248047 C28.7643244,33.6780607 28.9977857,33.8764311 29.1582031,34.1199219 C29.3128914,34.3519543 29.4160154,34.6226547 29.4675781,34.9320313 C29.5134117,35.1440115 29.5363281,35.4820289 29.5363281,35.9460938 L26.1632812,35.9460938 C26.1776042,36.4130232 26.2878896,36.7875637 26.4941406,37.0697266 C26.7003917,37.3518894 27.0197895,37.4929688 27.4523437,37.4929688 C27.856252,37.4929688 28.1785144,37.359767 28.4191406,37.0933594 C28.5566413,36.9386711 28.6540362,36.7596364 28.7113281,36.55625 L29.471875,36.55625 C29.4518228,36.7252613 29.3852219,36.9136057 29.2720703,37.1212891 C29.1589187,37.3289724 29.0321622,37.4986973 28.8917969,37.6304687 C28.6568999,37.8596366 28.3661476,38.0143225 28.0195312,38.0945313 C27.8333324,38.1403648 27.6227876,38.1632812 27.3878906,38.1632812 C26.8149711,38.1632812 26.3294291,37.9548849 25.93125,37.5380859 C25.5330709,37.121287 25.3339844,36.537634 25.3339844,35.7871094 C25.3339844,35.0480432 25.5345032,34.447919 25.9355469,33.9867188 C26.3365905,33.5255185 26.8608041,33.2949219 27.5082031,33.2949219 Z M28.7414062,35.3316406 C28.7098957,34.9964827 28.6368495,34.7286468 28.5222656,34.528125 C28.3102854,34.1557273 27.9565129,33.9695313 27.4609375,33.9695313 C27.1057274,33.9695313 26.8078137,34.0977201 26.5671875,34.3541016 C26.3265613,34.6104831 26.1990886,34.9363261 26.1847656,35.3316406 L28.7414062,35.3316406 Z" id="Explore"></path></g></g></g></svg>