<?xml version="1.0" encoding="UTF-8"?>
<svg width="19px" height="17px" viewBox="0 0 19 17" version="1.1" xmlns="http://www.w3.org/2000/svg" xmlns:xlink="http://www.w3.org/1999/xlink">
    <!-- Generator: Sketch 52.5 (67469) - http://www.bohemiancoding.com/sketch -->
    <title>ic_how_to_reg_24px copy 2</title>
    <desc>Created with Sketch.</desc>
    <g id="UI" stroke="none" stroke-width="1" fill="none" fill-rule="evenodd" opacity="0.900000036">
        <g id="1C.7/setting/friends" transform="translate(-322.000000, -296.000000)">
            <g id="ic_how_to_reg_24px-copy-2" transform="translate(319.000000, 292.000000)">
                <polygon id="Path" points="0 0 24 0 24 24 0 24"></polygon>
                <g id="Group" transform="translate(3.000000, 4.000000)" fill="#000000">
                    <path d="M6,13 L9,10.06 C8.61,10.02 8.32,10 8,10 C5.33,10 0,11.34 0,14 L0,16 L9,16 L6,13 Z M8,8 C10.21,8 12,6.21 12,4 C12,1.79 10.21,0 8,0 C5.79,0 4,1.79 4,4 C4,6.21 5.79,8 8,8 Z" id="Shape" fill-rule="nonzero"></path>
                    <polygon id="Path" points="12.47 16.5 9 13 10.4 11.59 12.47 13.67 17.6 8.5 19 9.91"></polygon>
                </g>
            </g>
        </g>
    </g>
</svg>