<?xml version="1.0" encoding="UTF-8"?>
<svg width="24px" height="37px" viewBox="0 0 24 37" version="1.1" xmlns="http://www.w3.org/2000/svg" xmlns:xlink="http://www.w3.org/1999/xlink">
    <!-- Generator: Sketch 52.6 (67491) - http://www.bohemiancoding.com/sketch -->
    <title>Group</title>
    <desc>Created with Sketch.</desc>
    <g id="Symbols" stroke="none" stroke-width="1" fill="none" fill-rule="evenodd">
        <g id="tab/home_active" transform="translate(-1.000000, 0.000000)" fill="#000000">
            <g id="Group" transform="translate(1.000000, 0.000000)">
                <path d="M5.70078125,36 L4.87148437,36 L4.87148437,33.1082031 L1.71757812,33.1082031 L1.71757812,36 L0.892578125,36 L0.892578125,29.74375 L1.71757812,29.74375 L1.71757812,32.4335938 L4.87148437,32.4335938 L4.87148437,29.74375 L5.70078125,29.74375 L5.70078125,36 Z M6.83085938,33.6324219 C6.83085938,33.2943994 6.88027294,32.9814468 6.97910156,32.6935547 C7.07793018,32.4056626 7.21829336,32.1557302 7.40019531,31.94375 C7.58209726,31.7317698 7.80338411,31.5656256 8.0640625,31.4453125 C8.32474089,31.3249994 8.61692546,31.2648437 8.940625,31.2648438 C9.27005373,31.2648437 9.565819,31.3249994 9.82792969,31.4453125 C10.0900404,31.5656256 10.3127595,31.7317698 10.4960938,31.94375 C10.679428,32.1557302 10.8197912,32.4056626 10.9171875,32.6935547 C11.0145838,32.9814468 11.0632813,33.2943994 11.0632813,33.6324219 L11.0632813,33.7269531 C11.0632813,34.0649756 11.0145838,34.3779282 10.9171875,34.6658203 C10.8197912,34.9537124 10.679428,35.2029286 10.4960938,35.4134766 C10.3127595,35.6240245 10.0907565,35.7887364 9.83007812,35.9076172 C9.56939974,36.026498 9.27578288,36.0859375 8.94921875,36.0859375 C8.62265462,36.0859375 8.32903776,36.026498 8.06835938,35.9076172 C7.80768099,35.7887364 7.585678,35.6240245 7.40234375,35.4134766 C7.2190095,35.2029286 7.07793018,34.9537124 6.97910156,34.6658203 C6.88027294,34.3779282 6.83085938,34.0649756 6.83085938,33.7269531 L6.83085938,33.6324219 Z M7.63007813,33.7269531 C7.63007813,33.9589855 7.65729139,34.178124 7.71171875,34.384375 C7.76614611,34.590626 7.84850205,34.7718091 7.95878906,34.9279297 C8.06907607,35.0840503 8.2065747,35.2079423 8.37128906,35.2996094 C8.53600343,35.3912765 8.72864473,35.4371094 8.94921875,35.4371094 C9.16692817,35.4371094 9.35885334,35.3912765 9.525,35.2996094 C9.69114666,35.2079423 9.82864529,35.0840503 9.9375,34.9279297 C10.0463547,34.7718091 10.1287107,34.590626 10.1845703,34.384375 C10.24043,34.178124 10.2683594,33.9589855 10.2683594,33.7269531 L10.2683594,33.6324219 C10.2683594,33.4032541 10.24043,33.1848318 10.1845703,32.9771484 C10.1287107,32.7694651 10.0456386,32.5875659 9.93535156,32.4314453 C9.82506455,32.2753247 9.68684979,32.1507166 9.52070313,32.0576172 C9.35455646,31.9645178 9.16119902,31.9179688 8.940625,31.9179688 C8.72291558,31.9179688 8.53242269,31.9645178 8.36914062,32.0576172 C8.20585856,32.1507166 8.06907607,32.2753247 7.95878906,32.4314453 C7.84850205,32.5875659 7.76614611,32.7694651 7.71171875,32.9771484 C7.65729139,33.1848318 7.63007813,33.4032541 7.63007813,33.6324219 L7.63007813,33.7269531 Z M12.8078125,31.3507813 L12.8292969,31.8664063 C12.9897143,31.6773428 13.1837879,31.5298182 13.4115234,31.4238281 C13.639259,31.317838 13.9049464,31.2648437 14.2085938,31.2648438 C14.5093765,31.2648437 14.775064,31.3242833 15.0056641,31.4431641 C15.2362642,31.5620449 15.4131504,31.7518216 15.5363281,32.0125 C15.6910164,31.7890614 15.8922514,31.6085944 16.1400391,31.4710938 C16.3878268,31.3335931 16.6807275,31.2648437 17.01875,31.2648438 C17.26797,31.2648437 17.4885407,31.29707 17.6804688,31.3615234 C17.8723968,31.4259769 18.0349603,31.5269524 18.1681641,31.6644531 C18.3013679,31.8019538 18.4023434,31.9766916 18.4710938,32.1886719 C18.5398441,32.4006521 18.5742188,32.6527329 18.5742188,32.9449219 L18.5742188,36 L17.7792969,36 L17.7792969,32.940625 C17.7792969,32.7458324 17.7556643,32.583985 17.7083984,32.4550781 C17.6611326,32.3261712 17.5945317,32.2230473 17.5085938,32.1457031 C17.4226558,32.068359 17.3180996,32.0146486 17.1949219,31.9845703 C17.0717442,31.954492 16.9356778,31.9394531 16.7867187,31.9394531 C16.6234367,31.9394531 16.4787767,31.9652341 16.3527344,32.0167969 C16.2266921,32.0683596 16.1185551,32.1378251 16.0283203,32.2251953 C15.9380855,32.3125655 15.8664716,32.4156895 15.8134766,32.5345703 C15.7604815,32.6534511 15.726823,32.7802077 15.7125,32.9148438 L15.7125,36 L14.9132813,36 L14.9132813,32.9449219 C14.9132812,32.7644522 14.8896487,32.6104824 14.8423828,32.4830078 C14.795117,32.3555332 14.7285161,32.2516931 14.6425781,32.1714844 C14.5566402,32.0912756 14.4528001,32.0325523 14.3310547,31.9953125 C14.2093093,31.9580727 14.0725268,31.9394531 13.9207031,31.9394531 C13.637108,31.9394531 13.4093759,32.0010411 13.2375,32.1242187 C13.0656241,32.2473964 12.9367192,32.4078115 12.8507813,32.6054688 L12.8507813,36 L12.0558594,36 L12.0558594,31.3507813 L12.8078125,31.3507813 Z M21.7023438,36.0859375 C21.3786442,36.0859375 21.0857435,36.0300787 20.8236328,35.9183594 C20.5615221,35.8066401 20.3373707,35.651238 20.1511719,35.4521484 C19.964973,35.2530589 19.8217453,35.016017 19.7214844,34.7410156 C19.6212235,34.4660143 19.5710938,34.165236 19.5710938,33.8386719 L19.5710938,33.6582031 C19.5710938,33.2800762 19.6276687,32.9420588 19.7408203,32.6441406 C19.8539719,32.3462225 20.0050772,32.0955739 20.1941406,31.8921875 C20.3832041,31.6888011 20.5994779,31.533399 20.8429688,31.4259766 C21.0864596,31.3185542 21.3399726,31.2648437 21.6035156,31.2648438 C21.935809,31.2648437 22.2222644,31.322851 22.4628906,31.4388672 C22.7035168,31.5548834 22.9018872,31.7145823 23.0580078,31.9179688 C23.2141284,32.1213552 23.3294267,32.3619778 23.4039063,32.6398437 C23.4783858,32.9177097 23.515625,33.2199202 23.515625,33.5464844 L23.515625,33.903125 L20.3660156,33.903125 C20.3717448,34.1179698 20.4068356,34.3184887 20.4712891,34.5046875 C20.5357425,34.6908863 20.6274083,34.8527337 20.7462891,34.9902344 C20.8651699,35.1277351 21.0083976,35.2365881 21.1759766,35.3167969 C21.3435555,35.3970056 21.5333323,35.4371094 21.7453125,35.4371094 C22.0260431,35.4371094 22.2638011,35.3798183 22.4585938,35.2652344 C22.6533864,35.1506505 22.8238274,34.9988291 22.9699219,34.8097656 L23.4554688,35.1878906 C23.3809892,35.3024745 23.2907557,35.413476 23.1847656,35.5208984 C23.0787755,35.6283208 22.9548835,35.7242834 22.8130859,35.8087891 C22.6712884,35.8932947 22.5087249,35.9606117 22.3253906,36.0107422 C22.1420564,36.0608726 21.9343762,36.0859375 21.7023438,36.0859375 Z M21.6035156,31.9179688 C21.4430982,31.9179688 21.2955736,31.9473304 21.1609375,32.0060547 C21.0263014,32.0647789 20.9059901,32.1499994 20.8,32.2617188 C20.6940099,32.3734381 20.6059248,32.512369 20.5357422,32.6785156 C20.4655595,32.8446623 20.4175783,33.0351552 20.3917969,33.25 L22.7207031,33.25 L22.7207031,33.1898438 C22.7121093,33.0351555 22.6870445,32.8819018 22.6455078,32.7300781 C22.6039711,32.5782544 22.5395187,32.4421881 22.4521484,32.321875 C22.3647782,32.2015619 22.2523444,32.104167 22.1148438,32.0296875 C21.9773431,31.955208 21.8069021,31.9179688 21.6035156,31.9179688 Z" id="Home"></path>
                <g id="noun_Home_124241" fill-rule="nonzero">
                    <path d="M11.9629708,1.44438531 L1.80490261,11.1521903 C1.58530244,11.3620566 1.23715111,11.3541657 1.02728486,11.1345655 C0.817418614,10.9149653 0.825309519,10.566814 1.04490969,10.3569478 L11.5829743,0.285989866 C11.7955694,0.0828182525 12.1303722,0.0828182525 12.3429673,0.285989866 L22.8810319,10.3569478 C23.1006321,10.566814 23.108523,10.9149653 22.8986567,11.1345655 C22.6887905,11.3541657 22.3406391,11.3620566 22.121039,11.1521903 L11.9629708,1.44438531 Z" id="Path-2"></path>
                    <path d="M19.4912365,8.53923535 C19.4912365,8.23547873 19.7374798,7.98923535 20.0412365,7.98923535 C20.3449931,7.98923535 20.5912365,8.23547873 20.5912365,8.53923535 L20.5912365,20.0860256 C20.5912365,20.3897822 20.3449931,20.6360256 20.0412365,20.6360256 L14.8806454,20.6360256 C14.5768888,20.6360256 14.3306454,20.3897822 14.3306454,20.0860256 L14.3306454,14.7550511 C14.3306454,13.4721566 13.290654,12.4321652 12.0077595,12.4321652 C10.724865,12.4321652 9.68487353,13.4721566 9.68487353,14.7550511 L9.68487353,20.0860256 C9.68487353,20.3897822 9.43863015,20.6360256 9.13487353,20.6360256 L3.89814529,20.6360256 C3.59438868,20.6360256 3.34814529,20.3897822 3.34814529,20.0860256 L3.34814529,8.53923535 C3.34814529,8.23547873 3.59438868,7.98923535 3.89814529,7.98923535 C4.20190191,7.98923535 4.44814529,8.23547873 4.44814529,8.53923535 L4.44814529,19.5360256 L8.58487353,19.5360256 L8.58487353,14.7550511 C8.58487353,12.8646434 10.1173518,11.3321652 12.0077595,11.3321652 C13.8981672,11.3321652 15.4306454,12.8646434 15.4306454,14.7550511 L15.4306454,19.5360256 L19.4912365,19.5360256 L19.4912365,8.53923535 Z" id="Path-3"></path>
                </g>
            </g>
        </g>
    </g>
</svg>