<?xml version="1.0" encoding="UTF-8"?>
<svg width="24px" height="38px" viewBox="0 0 24 38" version="1.1" xmlns="http://www.w3.org/2000/svg" xmlns:xlink="http://www.w3.org/1999/xlink">
    <!-- Generator: Sketch 52.6 (67491) - http://www.bohemiancoding.com/sketch -->
    <title>Group</title>
    <desc>Created with Sketch.</desc>
    <g id="Symbols" stroke="none" stroke-width="1" fill="none" fill-rule="evenodd">
        <g id="tab/home" transform="translate(-1.000000, 0.000000)">
            <g id="Group" transform="translate(1.000000, 0.000000)">
                <path d="M1.45488281,30.6878906 L2.31855469,30.6878906 L2.31855469,33.2960937 L5.60136719,33.2960937 L5.60136719,30.6878906 L6.46503906,30.6878906 L6.46503906,37 L5.60136719,37 L5.60136719,34.0480469 L2.31855469,34.0480469 L2.31855469,37 L1.45488281,37 L1.45488281,30.6878906 Z M9.51152344,36.5015625 C10.0242864,36.5015625 10.3759105,36.3074889 10.5664062,35.9193359 C10.756902,35.531183 10.8521484,35.0993513 10.8521484,34.6238281 C10.8521484,34.1941385 10.7833991,33.8446628 10.6458984,33.5753906 C10.428189,33.1514302 10.0529324,32.9394531 9.52011719,32.9394531 C9.04745857,32.9394531 8.70371201,33.1199201 8.48886719,33.4808594 C8.27402236,33.8417987 8.16660156,34.277211 8.16660156,34.7871094 C8.16660156,35.2769556 8.27402236,35.6851546 8.48886719,36.0117188 C8.70371201,36.3382829 9.04459402,36.5015625 9.51152344,36.5015625 Z M9.54160156,32.2648437 C10.1345733,32.2648437 10.6358703,32.462498 11.0455078,32.8578125 C11.4551453,33.253127 11.6599609,33.8346316 11.6599609,34.6023438 C11.6599609,35.3442745 11.479494,35.9572892 11.1185547,36.4414062 C10.7576154,36.9255233 10.1975949,37.1675781 9.43847656,37.1675781 C8.80540048,37.1675781 8.30267113,36.9534527 7.93027344,36.5251953 C7.55787574,36.096938 7.37167969,35.5218786 7.37167969,34.8 C7.37167969,34.0265586 7.56790168,33.4106794 7.96035156,32.9523437 C8.35280144,32.4940081 8.8798795,32.2648437 9.54160156,32.2648437 Z M12.5794922,32.3980469 L13.3443359,32.3980469 L13.3443359,33.0511719 C13.5276702,32.8248687 13.6938144,32.6601568 13.8427734,32.5570313 C14.0977226,32.3822908 14.3870427,32.2949219 14.7107422,32.2949219 C15.0774107,32.2949219 15.3724598,32.3851553 15.5958984,32.565625 C15.7219407,32.6687505 15.8365229,32.8205719 15.9396484,33.0210937 C16.1115243,32.7747384 16.3134754,32.592123 16.5455078,32.4732422 C16.7775402,32.3543614 17.0382147,32.2949219 17.3275391,32.2949219 C17.9462922,32.2949219 18.3673817,32.5183571 18.5908203,32.9652344 C18.7111334,33.2058606 18.7712891,33.5295553 18.7712891,33.9363281 L18.7712891,37 L17.9677734,37 L17.9677734,33.803125 C17.9677734,33.4966131 17.8911466,33.2860683 17.7378906,33.1714844 C17.5846347,33.0569005 17.3977225,32.9996094 17.1771484,32.9996094 C16.8735011,32.9996094 16.6121105,33.1013011 16.3929688,33.3046875 C16.173827,33.5080739 16.0642578,33.8475237 16.0642578,34.3230469 L16.0642578,37 L15.2779297,37 L15.2779297,33.9964844 C15.2779297,33.6842432 15.2406905,33.4565111 15.1662109,33.3132813 C15.0487624,33.0984364 14.829624,32.9910156 14.5087891,32.9910156 C14.2166001,32.9910156 13.9509127,33.1041655 13.7117188,33.3304688 C13.4725248,33.556772 13.3529297,33.9664033 13.3529297,34.559375 L13.3529297,37 L12.5794922,37 L12.5794922,32.3980469 Z M21.8263672,32.2949219 C22.1529313,32.2949219 22.4694646,32.3715487 22.7759766,32.5248047 C23.0824885,32.6780607 23.3159497,32.8764311 23.4763672,33.1199219 C23.6310555,33.3519543 23.7341794,33.6226547 23.7857422,33.9320313 C23.8315757,34.1440115 23.8544922,34.4820289 23.8544922,34.9460938 L20.4814453,34.9460938 C20.4957683,35.4130232 20.6060537,35.7875637 20.8123047,36.0697266 C21.0185557,36.3518894 21.3379536,36.4929688 21.7705078,36.4929688 C22.1744161,36.4929688 22.4966785,36.359767 22.7373047,36.0933594 C22.8748054,35.9386711 22.9722002,35.7596364 23.0294922,35.55625 L23.7900391,35.55625 C23.7699869,35.7252613 23.703386,35.9136057 23.5902344,36.1212891 C23.4770828,36.3289724 23.3503262,36.4986973 23.2099609,36.6304687 C22.9750639,36.8596366 22.6843116,37.0143225 22.3376953,37.0945313 C22.1514965,37.1403648 21.9409517,37.1632812 21.7060547,37.1632812 C21.1331352,37.1632812 20.6475931,36.9548849 20.2494141,36.5380859 C19.851235,36.121287 19.6521484,35.537634 19.6521484,34.7871094 C19.6521484,34.0480432 19.8526673,33.447919 20.2537109,32.9867188 C20.6547546,32.5255185 21.1789681,32.2949219 21.8263672,32.2949219 Z M23.0595703,34.3316406 C23.0280597,33.9964827 22.9550136,33.7286468 22.8404297,33.528125 C22.6284495,33.1557273 22.274677,32.9695313 21.7791016,32.9695313 C21.4238915,32.9695313 21.1259778,33.0977201 20.8853516,33.3541016 C20.6447254,33.6104831 20.5172527,33.9363261 20.5029297,34.3316406 L23.0595703,34.3316406 Z" id="Home" fill="#000000"></path>
                <g id="noun_Home_124241" transform="translate(1.000000, 0.000000)" fill-rule="nonzero" stroke="#000000" stroke-linecap="round" stroke-linejoin="round" stroke-width="1.1">
                    <polyline id="Path-2" points="0.424906154 10.754569 10.9629708 0.683611156 21.5010354 10.754569"></polyline>
                    <path d="M2.89814529,8.53923535 L2.89814529,20.0860256 L8.13487353,20.0860256 L8.13487353,14.7550511 C8.13487353,13.1684 9.42110839,11.8821652 11.0077595,11.8821652 L11.0077595,11.8821652 C12.5944106,11.8821652 13.8806454,13.1684 13.8806454,14.7550511 L13.8806454,20.0860256 L19.0412365,20.0860256 L19.0412365,8.53923535" id="Path-3"></path>
                </g>
            </g>
        </g>
    </g>
</svg>