<?xml version="1.0" encoding="UTF-8"?><svg width="24px" height="40px" viewBox="0 0 24 40" version="1.1" xmlns="http://www.w3.org/2000/svg" xmlns:xlink="http://www.w3.org/1999/xlink"><title>Group 2</title><desc>Created with Sketch.</desc><g id="Symbols" stroke="none" stroke-width="1" fill="none" fill-rule="evenodd"><g id="tab/me_active" fill="#000000"><g id="Group-2"><g id="noun_profile_1774262"><g id="Group" transform="translate(0.000000, 0.171248)"><path d="M11.8307411,0.0972444034 C5.29661862,0.0972444034 -2.28727276e-06,5.39194831 -2.28727276e-06,11.9108083 C0.111229669,18.582705 5.01333263,23.622773 11.8307411,23.7243696 C18.2614218,23.6963929 23.6157755,18.7936576 23.6800024,11.9108083 C23.6800024,5.39128246 18.3648636,0.0972470883 11.8307411,0.0972470883 L11.8307411,0.0972444034 Z M11.8307411,1.27952413 C17.72435,1.27952413 22.4950746,6.03035316 22.4950746,11.9108083 C22.4950746,14.6247592 21.4738108,17.0921289 19.8012023,18.9675318 C18.6901886,16.8681814 16.7869923,15.2509317 14.4783131,14.5432188 C15.8017794,13.6796206 16.6815286,12.1895815 16.6815286,10.4976003 C16.6815286,7.8332288 14.5010914,5.66689284 11.8307411,5.66689284 C9.16945867,5.66689284 6.98919317,7.83147288 6.98919317,10.4976003 C6.98919317,12.1902528 7.86918072,13.6798623 9.19244684,14.5432188 C6.88361508,15.2509048 4.97473611,16.8670537 3.86951947,18.9675318 C2.19996188,17.0923437 1.1849246,14.6244908 1.1849246,11.9108083 C1.1849246,6.02968731 5.93713248,1.27952413 11.8307411,1.27952413 Z M11.8307411,6.84916989 C13.8627706,6.84916989 15.4966016,8.47009789 15.4966016,10.4976003 C15.4966016,12.5251135 13.8627706,14.1460415 11.8307411,14.1460415 C9.81062077,14.1460415 8.17411992,12.5233683 8.17411992,10.4976003 C8.17411992,8.47186992 9.81062077,6.84916989 11.8307411,6.84916989 Z M11.8307411,15.3283374 C14.9734888,15.3283374 17.6695828,17.1849191 18.9217771,19.8450109 C17.0386418,21.5166835 14.5557731,22.5420738 11.8307414,22.5420738 C9.10790278,22.5420738 6.62912424,21.5234763 4.74897341,19.8542469 C5.98917305,17.1881946 8.68263527,15.3283374 11.8307414,15.3283374 L11.8307411,15.3283374 Z" id="Shape"></path></g></g><path d="M7.03652344,32.6878906 L8.26113281,32.6878906 L10.0744141,38.0246094 L11.8748047,32.6878906 L13.0865234,32.6878906 L13.0865234,39 L12.2744141,39 L12.2744141,35.2746094 C12.2744141,35.1457025 12.2772786,34.9322932 12.2830078,34.634375 C12.288737,34.3364568 12.2916016,34.017059 12.2916016,33.6761719 L10.4912109,39 L9.64472656,39 L7.83144531,33.6761719 L7.83144531,33.8695313 C7.83144531,34.0242195 7.83502601,34.2598291 7.8421875,34.5763672 C7.84934899,34.8929052 7.85292969,35.1256503 7.85292969,35.2746094 L7.85292969,39 L7.03652344,39 L7.03652344,32.6878906 Z M16.2017578,34.2949219 C16.5283219,34.2949219 16.8448552,34.3715487 17.1513672,34.5248047 C17.4578791,34.6780607 17.6913403,34.8764311 17.8517578,35.1199219 C18.0064461,35.3519543 18.1095701,35.6226547 18.1611328,35.9320313 C18.2069664,36.1440115 18.2298828,36.4820289 18.2298828,36.9460938 L14.8568359,36.9460938 C14.8711589,37.4130232 14.9814443,37.7875637 15.1876953,38.0697266 C15.3939463,38.3518894 15.7133442,38.4929688 16.1458984,38.4929688 C16.5498067,38.4929688 16.8720691,38.359767 17.1126953,38.0933594 C17.250196,37.9386711 17.3475909,37.7596364 17.4048828,37.55625 L18.1654297,37.55625 C18.1453775,37.7252613 18.0787766,37.9136057 17.965625,38.1212891 C17.8524734,38.3289724 17.7257168,38.4986973 17.5853516,38.6304688 C17.3504546,38.8596366 17.0597023,39.0143225 16.7130859,39.0945313 C16.5268871,39.1403648 16.3163423,39.1632813 16.0814453,39.1632813 C15.5085258,39.1632813 15.0229838,38.9548849 14.6248047,38.5380859 C14.2266256,38.121287 14.0275391,37.537634 14.0275391,36.7871094 C14.0275391,36.0480432 14.2280579,35.447919 14.6291016,34.9867188 C15.0301452,34.5255185 15.5543587,34.2949219 16.2017578,34.2949219 Z M17.4349609,36.3316406 C17.4034504,35.9964827 17.3304042,35.7286468 17.2158203,35.528125 C17.0038401,35.1557273 16.6500676,34.9695313 16.1544922,34.9695313 C15.7992821,34.9695313 15.5013684,35.0977201 15.2607422,35.3541016 C15.020116,35.6104831 14.8926433,35.9363261 14.8783203,36.3316406 L17.4349609,36.3316406 Z" id="Me"></path></g></g></g></svg>